# xmcd CD Database Entry
#
# Track frame offsets:
# 182
# 13632
# 24047
# 33740
# 45077
# 56767
# 67320
#
# Disc length: 1053 seconds
#
# Revision: 2
# Processed by: cddbd v1.4b42PL0 Copyright (c) Steve Scherf et al.
# Submitted via: tcd 2.0b
#
DISCID=53041b07
DTITLE=Les rats - C'est bien parti pour ne pas s'arranger !!!
DYEAR=1900
DGENRE=
TTITLE0=Paris s'éveille
TTITLE1=Allez danser
TTITLE2=De Barbes à Belleville
TTITLE3=Jour de chance
TTITLE4=Rien
TTITLE5=Enfant à problèmes
TTITLE6=Banlieue...
EXTD=
EXTT0=
EXTT1=
EXTT2=
EXTT3=
EXTT4=
EXTT5=
EXTT6=
PLAYORDER=
